<svg width="75" height="75" viewBox="0 0 75 75" fill="none" xmlns="http://www.w3.org/2000/svg">
<path d="M37.5 0C16.7893 0 0 16.7893 0 37.5C0 58.2107 16.7893 75 37.5 75C58.2107 75 75 58.2107 75 37.5C75 16.7893 58.2107 0 37.5 0ZM24.0234 14.8956C24.7961 14.8501 25.4944 15.3119 26.0239 16.1316L31.1508 25.8544C31.6906 27.0066 31.3839 28.2402 30.5786 29.0634L28.2303 31.4117C28.0854 31.6103 27.99 31.834 27.9877 32.08C28.8883 35.5659 31.62 38.7814 34.0303 40.9927C36.4404 43.2039 39.0308 46.1978 42.3935 46.907C42.8091 47.0229 43.3183 47.0645 43.6157 46.7881L46.344 44.0094C47.2858 43.2956 48.6481 42.9497 49.6536 43.5334H49.6994L58.9507 48.9945C60.3087 49.8457 60.4494 51.491 59.4771 52.4918L53.1052 58.8135C52.1642 59.7785 50.9141 60.1029 49.6995 60.1044C44.3278 59.9434 39.2521 57.3069 35.0831 54.5975C28.24 49.6192 21.9629 43.4446 18.0222 35.9848C16.5108 32.8567 14.7354 28.8654 14.9048 25.3739C14.9199 24.0604 15.2753 22.7736 16.2003 21.927L22.5724 15.5549C23.0687 15.1326 23.5598 14.923 24.0234 14.8956V14.8956Z" fill="white"/>
</svg>
